<svg width="754" height="40" viewBox="0 0 754 40" fill="none" xmlns="http://www.w3.org/2000/svg">
<rect width="114" height="40" rx="20" fill="#292C34"/>
<path fill-rule="evenodd" clip-rule="evenodd" d="M27.9999 10.4908C22.6159 10.4908 18.25 14.8558 18.25 20.2408C18.25 24.5487 21.0436 28.2032 24.9176 29.4926C25.4047 29.583 25.5836 29.2811 25.5836 29.0236C25.5836 28.7911 25.5745 28.023 25.5704 27.2083C22.8579 27.7981 22.2856 26.058 22.2856 26.058C21.842 24.931 21.203 24.6314 21.203 24.6314C20.3182 24.0262 21.2697 24.0388 21.2697 24.0388C22.2486 24.1074 22.7643 25.0436 22.7643 25.0436C23.6339 26.5338 25.0451 26.103 25.6015 25.8541C25.689 25.2239 25.9417 24.7936 26.2205 24.5501C24.0549 24.3039 21.7783 23.4678 21.7783 19.7319C21.7783 18.6674 22.1593 17.7976 22.783 17.1147C22.6816 16.8693 22.3479 15.8776 22.8773 14.5346C22.8773 14.5346 23.6959 14.2726 25.559 15.534C26.3369 15.3179 27.1712 15.2092 27.9999 15.2055C28.8282 15.2092 29.6629 15.3175 30.4422 15.5337C32.3032 14.2723 33.1208 14.5343 33.1208 14.5343C33.6515 15.8771 33.3177 16.8689 33.2165 17.1144C33.8417 17.7973 34.22 18.6671 34.22 19.7315C34.22 23.4763 31.9391 24.3007 29.768 24.5422C30.1179 24.8448 30.4295 25.4383 30.4295 26.3478C30.4295 27.6523 30.4182 28.7023 30.4182 29.0234C30.4182 29.2829 30.5938 29.5869 31.0879 29.4911C34.9596 28.2005 37.75 24.5471 37.75 20.2408C37.7498 14.8561 33.3844 10.4908 27.9999 10.4908Z" fill="#C0C4CE"/>
<path d="M21.9428 24.4894C21.9213 24.5379 21.8451 24.5524 21.7757 24.5193C21.7046 24.4877 21.6651 24.4216 21.688 24.373C21.709 24.323 21.7854 24.3093 21.8559 24.3427C21.927 24.3745 21.9675 24.441 21.9428 24.4894ZM22.3377 24.9301C22.2914 24.9732 22.2005 24.9531 22.1388 24.8848C22.0749 24.817 22.0629 24.7261 22.1102 24.6824C22.1583 24.6394 22.2465 24.6598 22.3104 24.7276C22.374 24.7964 22.3865 24.8863 22.3377 24.9301ZM22.7223 25.4914C22.6626 25.5331 22.5647 25.4942 22.5043 25.4075C22.4446 25.3206 22.4446 25.2165 22.5059 25.175C22.5662 25.1333 22.6626 25.1709 22.7239 25.2568C22.7833 25.3448 22.7833 25.4491 22.7223 25.4914ZM23.2488 26.0341C23.1955 26.093 23.0815 26.0772 22.9982 25.9969C22.9131 25.9183 22.8894 25.8064 22.9428 25.7477C22.9971 25.6886 23.1116 25.705 23.1954 25.7848C23.2804 25.8633 23.3058 25.9755 23.2488 26.0341ZM23.9753 26.3491C23.9516 26.4254 23.8421 26.4602 23.7315 26.4275C23.6213 26.3941 23.5491 26.3048 23.5717 26.2277C23.5943 26.1506 23.7046 26.1146 23.8158 26.1494C23.9261 26.1826 23.9983 26.2714 23.9753 26.3491ZM24.7734 26.4074C24.7762 26.4878 24.6825 26.5543 24.5667 26.5559C24.45 26.5586 24.3556 26.4934 24.3544 26.4143C24.3544 26.3331 24.4461 26.2674 24.5627 26.2651C24.6785 26.263 24.7734 26.3278 24.7734 26.4074ZM25.5158 26.2811C25.5297 26.3594 25.4491 26.44 25.334 26.4614C25.221 26.4824 25.116 26.4337 25.1015 26.356C25.0876 26.2756 25.1696 26.195 25.2826 26.1742C25.3979 26.1544 25.5012 26.2015 25.5158 26.2811Z" fill="#C0C4CE"/>
<path d="M54.0524 26.16C52.9644 26.16 52.0524 25.9573 51.3164 25.552C50.5804 25.136 50.0258 24.5227 49.6524 23.712C49.2898 22.8907 49.1084 21.872 49.1084 20.656C49.1084 19.44 49.2898 18.4267 49.6524 17.616C50.0258 16.8053 50.5804 16.1973 51.3164 15.792C52.0524 15.3867 52.9644 15.184 54.0524 15.184C54.6391 15.184 55.2151 15.2427 55.7804 15.36C56.3458 15.4773 56.8898 15.6587 57.4124 15.904V17.104C56.9111 16.88 56.3884 16.688 55.8444 16.528C55.3004 16.3573 54.7458 16.272 54.1804 16.272C53.2844 16.272 52.5431 16.432 51.9564 16.752C51.3804 17.0613 50.9538 17.5413 50.6764 18.192C50.3991 18.832 50.2604 19.6533 50.2604 20.656C50.2604 21.6587 50.3991 22.4853 50.6764 23.136C50.9538 23.7867 51.3804 24.272 51.9564 24.592C52.5431 24.9013 53.2844 25.056 54.1804 25.056C54.6071 25.056 55.0231 25.024 55.4284 24.96C55.8338 24.896 56.2338 24.8 56.6284 24.672V21.632H54.0524V20.512H57.7804V25.328C57.1938 25.6053 56.5911 25.8133 55.9724 25.952C55.3538 26.0907 54.7138 26.16 54.0524 26.16ZM60.4768 26V18.016H61.6288V26H60.4768ZM60.4128 16.592V15.328H61.6928V16.592H60.4128ZM66.7686 26.128C66.2032 26.128 65.7286 25.9573 65.3446 25.616C64.9606 25.264 64.7686 24.7467 64.7686 24.064V19.072H63.3766V18.016H64.7686V15.76H65.9206V18.016H67.9846V19.072H65.9206V23.696C65.9206 24.144 65.9899 24.48 66.1286 24.704C66.2672 24.928 66.5499 25.04 66.9766 25.04C67.1686 25.04 67.3552 25.024 67.5366 24.992C67.7179 24.9493 67.8672 24.9013 67.9846 24.848V25.936C67.8352 25.9893 67.6432 26.032 67.4086 26.064C67.1846 26.1067 66.9712 26.128 66.7686 26.128ZM70.1491 26V15.328H71.3011V20.128H76.9811V15.328H78.1331V26H76.9811V21.216H71.3011V26H70.1491ZM84.1162 26.24C83.4122 26.24 82.8095 26.1173 82.3082 25.872C81.8069 25.6267 81.4229 25.2693 81.1562 24.8C80.9002 24.3307 80.7722 23.7547 80.7722 23.072V18.016H81.9242V22.816C81.9242 23.6267 82.1002 24.224 82.4522 24.608C82.8149 24.9813 83.3695 25.168 84.1162 25.168C84.8629 25.168 85.4122 24.9813 85.7642 24.608C86.1269 24.224 86.3082 23.6267 86.3082 22.816V18.016H87.4602V23.072C87.4602 24.0853 87.1669 24.8693 86.5802 25.424C86.0042 25.968 85.1829 26.24 84.1162 26.24ZM93.1742 26.24C92.7582 26.24 92.3582 26.2133 91.9742 26.16C91.6009 26.1173 91.2649 26.0373 90.9662 25.92C90.6782 25.792 90.4489 25.6267 90.2782 25.424C90.1075 25.2213 90.0222 24.96 90.0222 24.64V14.64H91.1742V18.928L90.7742 18.528C90.9875 18.4213 91.2435 18.32 91.5422 18.224C91.8515 18.128 92.1662 18.048 92.4862 17.984C92.8062 17.92 93.0835 17.888 93.3182 17.888C94.5555 17.888 95.4729 18.2507 96.0702 18.976C96.6675 19.6907 96.9662 20.6667 96.9662 21.904C96.9662 22.8213 96.8435 23.568 96.5982 24.144C96.3529 24.7093 96.0382 25.1467 95.6542 25.456C95.2809 25.7547 94.8755 25.9573 94.4382 26.064C94.0009 26.1813 93.5795 26.24 93.1742 26.24ZM93.0622 25.184C93.8195 25.184 94.3902 25.0293 94.7742 24.72C95.1582 24.4107 95.4142 24.0107 95.5422 23.52C95.6809 23.0187 95.7502 22.48 95.7502 21.904C95.7502 21.3173 95.6649 20.8053 95.4942 20.368C95.3342 19.92 95.0782 19.5733 94.7262 19.328C94.3742 19.072 93.9049 18.944 93.3182 18.944C92.9875 18.944 92.6302 18.992 92.2462 19.088C91.8622 19.1733 91.5049 19.312 91.1742 19.504V24.368C91.1742 24.6027 91.2755 24.7787 91.4782 24.896C91.6915 25.0133 91.9422 25.0933 92.2302 25.136C92.5289 25.168 92.8062 25.184 93.0622 25.184Z" fill="#C0C4CE"/>
<rect x="130" width="105" height="40" rx="20" fill="#292C34"/>
<path d="M158 25.56L162.1 24.43L162.654 18.33H155.361L155.18 16.3H162.835L163.036 14.31H152.964L153.528 20.32H160.468L160.236 22.9L158 23.5L155.764 22.9L155.623 21.24H153.608L153.9 24.43L158 25.56ZM150.012 11H165.988L164.547 27.2L158 29L151.453 27.2L150.012 11Z" fill="#E3646E"/>
<path d="M179.376 26V15.328H180.528V20.128H186.208V15.328H187.36V26H186.208V21.216H180.528V26H179.376ZM192.815 26V16.416H189.039V15.328H197.727V16.416H193.967V26H192.815ZM199.407 26V15.328H200.655L204.607 21.392L203.823 21.568L207.999 15.328H209.247V26H208.095V16.48H208.607L204.207 22.656L200.143 16.608L200.559 16.016V26H199.407ZM211.969 26V15.328H213.121V24.88H218.577V26H211.969Z" fill="#C0C4CE"/>
<rect x="251" width="92" height="40" rx="20" fill="#292C34"/>
<path d="M271.075 11L272.517 27.1952L278.99 29L285.482 27.1886L286.925 11H271.075ZM283.928 14.7104L283.448 20.1055L283.45 20.1346L283.448 20.2016V20.2011L283.106 23.9734L283.069 24.3086L279 25.4339L278.997 25.4368L274.935 24.3051L274.66 21.1863H276.652L276.793 22.7722L279.001 23.3704L279 23.3716V23.3713L281.216 22.7646L281.45 20.182H276.818L276.778 19.7454L276.688 18.7226L276.64 18.1734H281.626L281.807 16.1649H274.214L274.174 15.7286L274.084 14.7055L274.036 14.1563H283.976L283.928 14.7104Z" fill="#3996DB"/>
<path d="M304.972 26.128C303.33 26.128 302.092 25.6693 301.26 24.752C300.439 23.8347 300.028 22.4693 300.028 20.656C300.028 18.8427 300.439 17.4773 301.26 16.56C302.092 15.6427 303.33 15.184 304.972 15.184C305.538 15.184 306.092 15.2533 306.636 15.392C307.18 15.5307 307.708 15.7227 308.22 15.968V17.072C307.73 16.8053 307.223 16.608 306.7 16.48C306.178 16.3413 305.644 16.272 305.1 16.272C304.204 16.272 303.468 16.4267 302.892 16.736C302.327 17.0453 301.906 17.5253 301.628 18.176C301.362 18.816 301.228 19.6427 301.228 20.656C301.228 21.6693 301.362 22.5013 301.628 23.152C301.906 23.792 302.327 24.2667 302.892 24.576C303.468 24.8853 304.204 25.04 305.1 25.04C305.644 25.04 306.178 24.976 306.7 24.848C307.223 24.72 307.73 24.5227 308.22 24.256V25.36C307.879 25.52 307.527 25.6587 307.164 25.776C306.812 25.8933 306.45 25.9787 306.076 26.032C305.714 26.096 305.346 26.128 304.972 26.128ZM313.486 26.16C312.952 26.16 312.499 26.1227 312.126 26.048C311.752 25.9733 311.416 25.8667 311.118 25.728C310.819 25.5893 310.494 25.4293 310.142 25.248V24C310.483 24.288 310.942 24.544 311.518 24.768C312.094 24.992 312.766 25.104 313.534 25.104C314.344 25.104 314.931 24.9333 315.294 24.592C315.667 24.24 315.854 23.7973 315.854 23.264C315.854 22.816 315.731 22.4587 315.486 22.192C315.24 21.9147 314.926 21.6907 314.542 21.52C314.158 21.3387 313.752 21.168 313.326 21.008C312.963 20.88 312.6 20.7467 312.238 20.608C311.886 20.4587 311.566 20.2773 311.278 20.064C310.99 19.84 310.76 19.5573 310.59 19.216C310.419 18.864 310.334 18.4267 310.334 17.904C310.334 17.616 310.387 17.312 310.494 16.992C310.611 16.672 310.792 16.3733 311.038 16.096C311.294 15.8187 311.63 15.5947 312.046 15.424C312.472 15.2533 312.99 15.168 313.598 15.168C314.014 15.168 314.366 15.2 314.654 15.264C314.952 15.3173 315.235 15.4027 315.502 15.52C315.768 15.6267 316.067 15.76 316.398 15.92V17.104C316.12 16.944 315.854 16.8 315.598 16.672C315.352 16.5333 315.075 16.4267 314.766 16.352C314.467 16.2667 314.099 16.224 313.662 16.224C313.139 16.224 312.718 16.2987 312.398 16.448C312.088 16.5973 311.859 16.7947 311.71 17.04C311.571 17.2853 311.502 17.5467 311.502 17.824C311.502 18.2613 311.598 18.608 311.79 18.864C311.992 19.12 312.27 19.3333 312.622 19.504C312.984 19.664 313.4 19.824 313.87 19.984C314.243 20.112 314.616 20.256 314.99 20.416C315.363 20.5653 315.699 20.7573 315.998 20.992C316.307 21.216 316.552 21.504 316.734 21.856C316.926 22.1973 317.022 22.624 317.022 23.136C317.022 23.616 316.915 24.0907 316.702 24.56C316.488 25.0187 316.126 25.4027 315.614 25.712C315.102 26.0107 314.392 26.16 313.486 26.16ZM322.361 26.16C321.827 26.16 321.374 26.1227 321.001 26.048C320.627 25.9733 320.291 25.8667 319.993 25.728C319.694 25.5893 319.369 25.4293 319.017 25.248V24C319.358 24.288 319.817 24.544 320.393 24.768C320.969 24.992 321.641 25.104 322.409 25.104C323.219 25.104 323.806 24.9333 324.169 24.592C324.542 24.24 324.729 23.7973 324.729 23.264C324.729 22.816 324.606 22.4587 324.361 22.192C324.115 21.9147 323.801 21.6907 323.417 21.52C323.033 21.3387 322.627 21.168 322.201 21.008C321.838 20.88 321.475 20.7467 321.113 20.608C320.761 20.4587 320.441 20.2773 320.153 20.064C319.865 19.84 319.635 19.5573 319.465 19.216C319.294 18.864 319.209 18.4267 319.209 17.904C319.209 17.616 319.262 17.312 319.369 16.992C319.486 16.672 319.667 16.3733 319.913 16.096C320.169 15.8187 320.505 15.5947 320.921 15.424C321.347 15.2533 321.865 15.168 322.473 15.168C322.889 15.168 323.241 15.2 323.529 15.264C323.827 15.3173 324.11 15.4027 324.377 15.52C324.643 15.6267 324.942 15.76 325.273 15.92V17.104C324.995 16.944 324.729 16.8 324.473 16.672C324.227 16.5333 323.95 16.4267 323.641 16.352C323.342 16.2667 322.974 16.224 322.537 16.224C322.014 16.224 321.593 16.2987 321.273 16.448C320.963 16.5973 320.734 16.7947 320.585 17.04C320.446 17.2853 320.377 17.5467 320.377 17.824C320.377 18.2613 320.473 18.608 320.665 18.864C320.867 19.12 321.145 19.3333 321.497 19.504C321.859 19.664 322.275 19.824 322.745 19.984C323.118 20.112 323.491 20.256 323.865 20.416C324.238 20.5653 324.574 20.7573 324.873 20.992C325.182 21.216 325.427 21.504 325.609 21.856C325.801 22.1973 325.897 22.624 325.897 23.136C325.897 23.616 325.79 24.0907 325.577 24.56C325.363 25.0187 325.001 25.4027 324.489 25.712C323.977 26.0107 323.267 26.16 322.361 26.16Z" fill="#C0C4CE"/>
<rect x="359" width="138" height="40" rx="20" fill="#292C34"/>
<path d="M377.25 24.31L379.514 22.9625C379.951 23.7244 380.348 24.3688 381.301 24.3688C382.214 24.3688 382.79 24.019 382.79 22.6497V13.3511H385.57V22.6882C385.57 25.5204 383.883 26.8099 381.42 26.8099C380.55 26.8563 379.686 26.6422 378.942 26.1958C378.197 25.7494 377.607 25.0924 377.25 24.31ZM387.081 24.0162L389.344 22.7267C389.596 23.229 389.987 23.6513 390.471 23.945C390.956 24.2387 391.515 24.3919 392.084 24.387C393.236 24.387 393.97 23.8203 393.97 23.0387C393.97 22.1012 393.216 21.7688 391.945 21.2196L391.252 20.9299C389.247 20.0903 387.916 19.0352 387.916 16.8082C387.916 14.7568 389.505 13.1944 391.987 13.1944C392.791 13.1371 393.595 13.314 394.297 13.703C395 14.0921 395.571 14.6762 395.938 15.3823L393.773 16.7501C393.631 16.3996 393.384 16.0998 393.065 15.8905C392.746 15.6813 392.37 15.5723 391.986 15.5782C391.819 15.5615 391.65 15.5794 391.49 15.6305C391.331 15.6817 391.183 15.7651 391.058 15.8754C390.933 15.9857 390.832 16.1204 390.763 16.271C390.694 16.4216 390.657 16.5848 390.656 16.7501C390.656 17.5708 391.172 17.9025 392.362 18.4104L393.057 18.7036C395.42 19.6999 396.75 20.7158 396.75 23.0009C396.75 25.4624 394.785 26.8106 392.144 26.8106C389.563 26.8106 387.895 25.5988 387.081 24.0162Z" fill="#EABD5F"/>
<path d="M410.145 26.128C409.729 26.128 409.345 26.08 408.993 25.984C408.641 25.8773 408.321 25.7387 408.033 25.568V24.368C408.299 24.5493 408.593 24.704 408.913 24.832C409.243 24.9493 409.606 25.008 410.001 25.008C410.726 25.008 411.249 24.832 411.569 24.48C411.889 24.1173 412.049 23.5307 412.049 22.72V15.328H413.201V22.816C413.201 23.4987 413.105 24.0587 412.913 24.496C412.731 24.9227 412.491 25.2587 412.193 25.504C411.894 25.7387 411.563 25.904 411.201 26C410.849 26.0853 410.497 26.128 410.145 26.128ZM418.595 26.24C418.243 26.24 417.885 26.2027 417.523 26.128C417.171 26.0533 416.84 25.9253 416.531 25.744C416.232 25.5627 415.987 25.3173 415.795 25.008C415.613 24.688 415.523 24.288 415.523 23.808C415.523 23.1467 415.645 22.6187 415.891 22.224C416.147 21.8187 416.493 21.5307 416.931 21.36C417.379 21.1787 417.891 21.088 418.467 21.088C418.904 21.088 419.283 21.1147 419.603 21.168C419.923 21.2213 420.205 21.3013 420.451 21.408C420.707 21.504 420.936 21.616 421.139 21.744L421.363 22.8C421.117 22.6187 420.76 22.464 420.291 22.336C419.832 22.1973 419.325 22.128 418.771 22.128C418.099 22.128 417.581 22.256 417.219 22.512C416.856 22.768 416.674 23.1413 416.674 23.632C416.674 24.0267 416.781 24.3413 416.995 24.576C417.219 24.8107 417.496 24.976 417.827 25.072C418.168 25.168 418.515 25.216 418.867 25.216C419.56 25.216 420.083 25.168 420.435 25.072C420.797 24.9653 420.979 24.7307 420.979 24.368V20.704C420.979 20.0853 420.797 19.632 420.435 19.344C420.072 19.056 419.555 18.912 418.883 18.912C418.456 18.912 418.003 18.976 417.523 19.104C417.053 19.2213 416.648 19.4133 416.307 19.68V18.528C416.637 18.3147 417.08 18.1547 417.635 18.048C418.189 17.9307 418.728 17.872 419.251 17.872C419.603 17.872 419.928 17.9093 420.227 17.984C420.525 18.048 420.792 18.1493 421.027 18.288C421.261 18.416 421.459 18.5867 421.619 18.8C421.789 19.0027 421.917 19.2427 422.003 19.52C422.099 19.7867 422.147 20.0907 422.147 20.432V24.304C422.147 24.8693 421.976 25.2907 421.635 25.568C421.304 25.8453 420.867 26.0267 420.323 26.112C419.789 26.1973 419.213 26.24 418.595 26.24ZM427.045 26L423.669 18.016H424.901L427.845 25.008L427.589 25.072L430.453 18.016H431.605L428.213 26H427.045ZM435.891 26.24C435.539 26.24 435.182 26.2027 434.819 26.128C434.467 26.0533 434.137 25.9253 433.827 25.744C433.529 25.5627 433.283 25.3173 433.091 25.008C432.91 24.688 432.819 24.288 432.819 23.808C432.819 23.1467 432.942 22.6187 433.187 22.224C433.443 21.8187 433.79 21.5307 434.227 21.36C434.675 21.1787 435.187 21.088 435.763 21.088C436.201 21.088 436.579 21.1147 436.899 21.168C437.219 21.2213 437.502 21.3013 437.747 21.408C438.003 21.504 438.233 21.616 438.435 21.744L438.659 22.8C438.414 22.6187 438.057 22.464 437.587 22.336C437.129 22.1973 436.622 22.128 436.067 22.128C435.395 22.128 434.878 22.256 434.515 22.512C434.153 22.768 433.971 23.1413 433.971 23.632C433.971 24.0267 434.078 24.3413 434.291 24.576C434.515 24.8107 434.793 24.976 435.123 25.072C435.465 25.168 435.811 25.216 436.163 25.216C436.857 25.216 437.379 25.168 437.731 25.072C438.094 24.9653 438.275 24.7307 438.275 24.368V20.704C438.275 20.0853 438.094 19.632 437.731 19.344C437.369 19.056 436.851 18.912 436.179 18.912C435.753 18.912 435.299 18.976 434.819 19.104C434.35 19.2213 433.945 19.4133 433.603 19.68V18.528C433.934 18.3147 434.377 18.1547 434.931 18.048C435.486 17.9307 436.025 17.872 436.547 17.872C436.899 17.872 437.225 17.9093 437.523 17.984C437.822 18.048 438.089 18.1493 438.323 18.288C438.558 18.416 438.755 18.5867 438.915 18.8C439.086 19.0027 439.214 19.2427 439.299 19.52C439.395 19.7867 439.443 20.0907 439.443 20.432V24.304C439.443 24.8693 439.273 25.2907 438.931 25.568C438.601 25.8453 438.163 26.0267 437.619 26.112C437.086 26.1973 436.51 26.24 435.891 26.24ZM444.255 26.24C443.679 26.24 443.193 26.1813 442.799 26.064C442.415 25.9467 442.015 25.7813 441.599 25.568V24.352C441.929 24.5333 442.223 24.688 442.479 24.816C442.735 24.944 442.996 25.04 443.263 25.104C443.529 25.1573 443.833 25.184 444.175 25.184C444.708 25.184 445.14 25.0667 445.471 24.832C445.812 24.5973 445.983 24.2933 445.983 23.92C445.983 23.6213 445.897 23.392 445.727 23.232C445.567 23.072 445.359 22.9387 445.103 22.832C444.847 22.7253 444.58 22.6133 444.303 22.496C443.993 22.4107 443.679 22.32 443.359 22.224C443.049 22.1173 442.761 21.984 442.495 21.824C442.239 21.6533 442.031 21.44 441.871 21.184C441.711 20.9173 441.631 20.576 441.631 20.16C441.631 19.7547 441.711 19.408 441.871 19.12C442.041 18.832 442.26 18.5973 442.527 18.416C442.793 18.224 443.092 18.0853 443.423 18C443.753 17.9147 444.084 17.872 444.415 17.872C444.895 17.872 445.305 17.936 445.647 18.064C445.988 18.192 446.34 18.336 446.703 18.496V19.648C446.297 19.4347 445.935 19.264 445.615 19.136C445.295 18.9973 444.916 18.928 444.479 18.928C444.041 18.928 443.647 19.0187 443.295 19.2C442.953 19.3707 442.783 19.6373 442.783 20C442.783 20.2987 442.868 20.5387 443.039 20.72C443.22 20.8907 443.455 21.0293 443.743 21.136C444.031 21.232 444.34 21.328 444.671 21.424C444.937 21.5093 445.215 21.6053 445.503 21.712C445.791 21.808 446.057 21.9413 446.303 22.112C446.548 22.272 446.745 22.4853 446.895 22.752C447.055 23.0187 447.135 23.36 447.135 23.776C447.135 24.3413 446.991 24.8107 446.703 25.184C446.415 25.5467 446.047 25.8133 445.599 25.984C445.161 26.1547 444.713 26.24 444.255 26.24ZM452.64 26.128C452.213 26.128 451.776 26.0747 451.328 25.968C450.89 25.8507 450.485 25.648 450.112 25.36C449.749 25.0613 449.456 24.64 449.232 24.096C449.008 23.552 448.896 22.8533 448.896 22C448.896 21.1467 449.008 20.4533 449.232 19.92C449.456 19.376 449.749 18.9547 450.112 18.656C450.485 18.3573 450.89 18.1547 451.328 18.048C451.776 17.9307 452.213 17.872 452.64 17.872C453.045 17.872 453.445 17.9093 453.84 17.984C454.245 18.0587 454.634 18.1707 455.008 18.32V19.424C454.656 19.2747 454.293 19.1627 453.92 19.088C453.546 19.0133 453.162 18.976 452.768 18.976C451.818 18.976 451.125 19.216 450.688 19.696C450.261 20.176 450.048 20.944 450.048 22C450.048 23.0667 450.261 23.84 450.688 24.32C451.125 24.7893 451.818 25.024 452.768 25.024C453.162 25.024 453.546 24.9867 453.92 24.912C454.293 24.8373 454.656 24.7253 455.008 24.576V25.696C454.634 25.8347 454.245 25.9413 453.84 26.016C453.445 26.0907 453.045 26.128 452.64 26.128ZM457.171 26V18.656C457.299 18.6027 457.544 18.512 457.907 18.384C458.28 18.256 458.723 18.1387 459.235 18.032C459.757 17.9253 460.296 17.872 460.851 17.872C460.936 17.872 461.021 17.8827 461.107 17.904C461.192 17.9253 461.277 17.9467 461.363 17.968V18.992C461.085 18.96 460.813 18.944 460.547 18.944C460.291 18.944 460.04 18.96 459.795 18.992C459.549 19.0133 459.304 19.0453 459.059 19.088C458.813 19.1307 458.568 19.1733 458.323 19.216V26H457.171ZM463.266 26V18.016H464.418V26H463.266ZM463.202 16.592V15.328H464.482V16.592H463.202ZM470.182 26.224C469.947 26.224 469.68 26.192 469.382 26.128C469.094 26.064 468.811 25.984 468.534 25.888C468.256 25.792 468.011 25.6907 467.798 25.584L468.198 25.184V29.472H467.046V19.456C467.046 19.1253 467.147 18.8587 467.35 18.656C467.563 18.4533 467.835 18.2987 468.166 18.192C468.496 18.0747 468.848 17.9947 469.222 17.952C469.595 17.8987 469.947 17.872 470.278 17.872C470.918 17.872 471.52 18.0053 472.086 18.272C472.651 18.5387 473.11 18.992 473.462 19.632C473.814 20.2613 473.99 21.12 473.99 22.208C473.99 23.0293 473.84 23.744 473.542 24.352C473.254 24.9493 472.827 25.4133 472.262 25.744C471.696 26.064 471.003 26.224 470.182 26.224ZM470.182 25.168C470.768 25.168 471.248 25.0453 471.622 24.8C472.006 24.544 472.294 24.192 472.486 23.744C472.678 23.296 472.774 22.784 472.774 22.208C472.774 21.632 472.71 21.0933 472.582 20.592C472.454 20.0907 472.208 19.6907 471.846 19.392C471.483 19.0827 470.955 18.928 470.262 18.928C469.707 18.928 469.222 18.992 468.806 19.12C468.4 19.248 468.198 19.4293 468.198 19.664V24.608C468.528 24.8 468.859 24.944 469.19 25.04C469.52 25.1253 469.851 25.168 470.182 25.168ZM478.667 26.128C478.102 26.128 477.627 25.9573 477.243 25.616C476.859 25.264 476.667 24.7467 476.667 24.064V19.072H475.275V18.016H476.667V15.76H477.819V18.016H479.883V19.072H477.819V23.696C477.819 24.144 477.888 24.48 478.027 24.704C478.166 24.928 478.448 25.04 478.875 25.04C479.067 25.04 479.254 25.024 479.435 24.992C479.616 24.9493 479.766 24.9013 479.883 24.848V25.936C479.734 25.9893 479.542 26.032 479.307 26.064C479.083 26.1067 478.87 26.128 478.667 26.128Z" fill="#C0C4CE"/>
<rect x="513" width="106" height="40" rx="20" fill="#292C34"/>
<path d="M541.561 26.9433C541.388 26.7901 541.207 26.6363 541.034 26.4659C540.896 26.5936 540.767 26.7132 540.63 26.8322C538.92 28.306 537.158 28.9196 536.113 28.3231C535.103 27.7523 534.784 26.066 535.189 23.9445C535.232 23.7145 535.284 23.4846 535.344 23.2546C535.163 23.2012 534.99 23.1521 534.817 23.0944C532.666 22.3602 531.25 21.1678 531.25 19.9749C531.25 18.8253 532.571 17.7093 534.635 16.9937C534.866 16.9168 535.11 16.8405 535.361 16.7721C535.303 16.5505 535.258 16.3375 535.214 16.1314C534.782 13.9778 535.084 12.2574 536.103 11.678C537.165 11.0645 538.928 11.7207 540.697 13.2623C540.801 13.3558 540.905 13.4583 541.017 13.5603C541.181 13.407 541.336 13.2538 541.5 13.1176C543.176 11.6759 544.842 11.073 545.861 11.6524C546.923 12.2483 547.235 14.0884 546.76 16.3631C546.734 16.5083 546.702 16.6445 546.665 16.7903C546.881 16.8501 547.097 16.9179 547.295 16.9863C549.403 17.7018 550.767 18.8178 550.75 19.9931C550.75 21.194 549.291 22.3783 547.052 23.111C546.931 23.1451 546.811 23.1879 546.689 23.2215C546.741 23.3918 546.775 23.5622 546.81 23.7325C547.259 25.9389 546.914 27.7448 545.869 28.3413C545.595 28.4939 545.279 28.5717 544.959 28.5655C544.002 28.5639 542.786 27.9814 541.561 26.9433ZM543.254 23.8169C542.758 24.5301 542.213 25.213 541.622 25.8615C541.786 26.0217 541.95 26.1685 542.114 26.3047C543.539 27.5141 544.851 27.9659 545.465 27.6167C545.652 27.4675 545.806 27.2851 545.915 27.0803C546.025 26.8755 546.089 26.6524 546.104 26.4243C546.229 25.5789 546.194 24.72 546 23.8858C545.974 23.7325 545.942 23.5793 545.897 23.4175C545.027 23.6057 544.144 23.7391 543.254 23.8169ZM536.017 24.0897C535.663 25.9053 535.922 27.2584 536.537 27.6081C536.755 27.6922 536.99 27.7311 537.226 27.7218C537.461 27.7126 537.692 27.6555 537.901 27.5547C538.716 27.2384 539.457 26.7815 540.087 26.2086C540.216 26.106 540.337 25.987 540.467 25.8679C539.863 25.2192 539.303 24.5363 538.791 23.8233C537.905 23.7549 537.025 23.63 536.157 23.4495C536.103 23.6722 536.06 23.8847 536.017 24.0897ZM541.043 25.2821C541.424 24.8645 541.803 24.4048 542.183 23.8938C541.803 23.9109 541.406 23.9194 541.009 23.9194C540.611 23.9194 540.24 23.9109 539.869 23.8938C540.257 24.3957 540.646 24.8645 541.043 25.2821ZM539.229 16.9681C538.901 17.4364 538.581 17.9293 538.279 18.4504C537.977 18.9614 537.702 19.481 537.45 19.9989C537.71 20.51 537.986 21.0295 538.288 21.5582C538.59 22.0692 538.91 22.5727 539.238 23.0485C539.808 23.0827 540.404 23.1019 541.008 23.1019C541.612 23.1019 542.217 23.0848 542.796 23.0426C543.107 22.5743 543.426 22.0713 543.729 21.5518C544.032 21.0322 544.316 20.5041 544.567 19.9931C544.316 19.4906 544.031 18.971 543.729 18.451C543.427 17.9309 543.107 17.4364 542.788 16.9686C542.21 16.9259 541.613 16.9003 541.009 16.9003C540.404 16.9003 539.808 16.9254 539.229 16.9681ZM536.38 22.6667C536.972 22.7918 537.572 22.8857 538.176 22.9481C537.968 22.6245 537.762 22.3004 537.563 21.9597C537.373 21.6276 537.183 21.2954 537.01 20.9633C536.76 21.5421 536.552 22.114 536.38 22.6667ZM544.454 21.9512C544.255 22.2918 544.056 22.6154 543.858 22.931C544.471 22.86 545.08 22.7577 545.681 22.6245C545.493 22.0495 545.274 21.4836 545.024 20.9291C544.843 21.2698 544.653 21.6105 544.454 21.9512ZM534.903 17.7771C533.141 18.3906 532.079 19.284 532.079 19.9835C532.113 20.2085 532.194 20.4252 532.319 20.6211C532.443 20.817 532.608 20.9883 532.804 21.1251C533.478 21.6489 534.251 22.0532 535.084 22.3175C535.24 22.3709 535.404 22.4115 535.568 22.4627C535.833 21.6248 536.153 20.8026 536.526 20.0006C536.152 19.2123 535.835 18.4021 535.576 17.5752C535.343 17.6329 535.119 17.7002 534.903 17.7771ZM545.499 19.9835C545.882 20.7753 546.21 21.589 546.481 22.4195C546.594 22.3853 546.706 22.3511 546.81 22.3169C548.735 21.6868 549.93 20.7241 549.936 19.9744C549.936 19.2759 548.831 18.3725 547.026 17.7595C546.844 17.7002 546.646 17.6404 546.448 17.5806C546.186 18.3991 545.869 19.2016 545.499 19.9835ZM544.446 18.0243C544.645 18.365 544.835 18.6976 545.007 19.0298C545.247 18.487 545.454 17.9324 545.629 17.3686C545.042 17.2369 544.448 17.1345 543.85 17.0621C544.057 17.3766 544.256 17.6922 544.446 18.0243ZM536.388 17.3616C536.562 17.9068 536.768 18.4606 537.01 19.0308C537.183 18.6987 537.373 18.3666 537.563 18.0345C537.753 17.7023 537.951 17.3787 538.159 17.0631C537.537 17.1384 536.95 17.2404 536.388 17.3616ZM542.045 13.7413C541.898 13.8689 541.751 14.0051 541.604 14.1418C542.204 14.7823 542.755 15.4602 543.253 16.1709C544.132 16.2493 545.004 16.386 545.861 16.5799C545.896 16.4523 545.919 16.3241 545.948 16.1965C546.353 14.2373 546.104 12.7379 545.447 12.3636C545.303 12.2889 545.14 12.252 544.975 12.2568C544.269 12.2536 543.186 12.7614 542.045 13.7397V13.7413ZM536.518 12.385C535.905 12.7342 535.663 14.1311 536.025 15.9712C536.069 16.1671 536.112 16.3626 536.164 16.5671C537.022 16.3803 537.894 16.2465 538.772 16.1666C539.272 15.4551 539.826 14.777 540.43 14.1375C540.335 14.0435 540.231 13.9586 540.136 13.8732C538.935 12.8228 537.779 12.2686 537.024 12.2686C536.847 12.263 536.672 12.3033 536.518 12.385ZM542.165 16.0988C541.809 15.6225 541.425 15.1648 541.014 14.7275C540.626 15.1446 540.237 15.6049 539.859 16.0988C540.239 16.0817 540.619 16.0732 541.008 16.0732C541.396 16.0732 541.785 16.0801 542.165 16.0988ZM539.281 20.0176C539.273 19.7987 539.312 19.5804 539.395 19.3754C539.478 19.1703 539.605 18.9824 539.767 18.8226C539.929 18.6627 540.123 18.5339 540.339 18.4437C540.555 18.3534 540.789 18.3035 541.025 18.2966C541.503 18.3117 541.956 18.5013 542.283 18.8239C542.61 19.1465 542.785 19.5758 542.77 20.0176C542.785 20.4598 542.61 20.8896 542.283 21.2126C541.956 21.5356 541.503 21.7253 541.025 21.7402C540.788 21.7334 540.555 21.6834 540.339 21.593C540.122 21.5027 539.928 21.3738 539.766 21.2137C539.604 21.0537 539.478 20.8656 539.394 20.6604C539.311 20.4551 539.273 20.2367 539.281 20.0176Z" fill="#3996DB"/>
<path d="M562.665 26V15.328H567.049C568.094 15.328 568.878 15.5893 569.401 16.112C569.934 16.6347 570.201 17.408 570.201 18.432C570.201 19.0507 570.073 19.6 569.817 20.08C569.561 20.56 569.203 20.9387 568.745 21.216C568.286 21.4933 567.747 21.632 567.129 21.632L567.609 21.312L570.681 26H569.321L566.153 21.104L566.729 21.696H563.817V26H562.665ZM563.817 20.608H566.521C567.406 20.608 568.046 20.432 568.441 20.08C568.846 19.7173 569.049 19.1947 569.049 18.512C569.049 17.872 568.899 17.3653 568.601 16.992C568.302 16.608 567.742 16.416 566.921 16.416H563.817V20.608ZM575.974 26.24C575.217 26.24 574.561 26.0853 574.006 25.776C573.452 25.456 573.025 24.9813 572.726 24.352C572.428 23.7227 572.278 22.9387 572.278 22C572.278 20.624 572.588 19.5947 573.206 18.912C573.836 18.2187 574.694 17.872 575.782 17.872C576.636 17.872 577.318 18.064 577.83 18.448C578.353 18.832 578.726 19.3493 578.95 20C579.174 20.6507 579.281 21.3867 579.27 22.208H572.854L572.934 21.152H578.518L578.07 21.312C578.038 20.512 577.836 19.9147 577.462 19.52C577.1 19.1253 576.54 18.928 575.782 18.928C575.26 18.928 574.822 19.024 574.47 19.216C574.129 19.408 573.873 19.744 573.702 20.224C573.532 20.6933 573.446 21.3547 573.446 22.208C573.446 23.1787 573.67 23.92 574.118 24.432C574.577 24.9333 575.217 25.184 576.038 25.184C576.433 25.184 576.796 25.1573 577.126 25.104C577.457 25.04 577.761 24.9547 578.038 24.848C578.316 24.7413 578.561 24.624 578.774 24.496V25.68C578.39 25.8613 577.964 26 577.494 26.096C577.036 26.192 576.529 26.24 575.974 26.24ZM584.18 26.24C583.828 26.24 583.471 26.2027 583.108 26.128C582.756 26.0533 582.426 25.9253 582.116 25.744C581.818 25.5627 581.572 25.3173 581.38 25.008C581.199 24.688 581.108 24.288 581.108 23.808C581.108 23.1467 581.231 22.6187 581.476 22.224C581.732 21.8187 582.079 21.5307 582.516 21.36C582.964 21.1787 583.476 21.088 584.052 21.088C584.49 21.088 584.868 21.1147 585.188 21.168C585.508 21.2213 585.791 21.3013 586.036 21.408C586.292 21.504 586.522 21.616 586.724 21.744L586.948 22.8C586.703 22.6187 586.346 22.464 585.876 22.336C585.418 22.1973 584.911 22.128 584.356 22.128C583.684 22.128 583.167 22.256 582.804 22.512C582.442 22.768 582.26 23.1413 582.26 23.632C582.26 24.0267 582.367 24.3413 582.58 24.576C582.804 24.8107 583.082 24.976 583.412 25.072C583.754 25.168 584.1 25.216 584.452 25.216C585.146 25.216 585.668 25.168 586.02 25.072C586.383 24.9653 586.564 24.7307 586.564 24.368V20.704C586.564 20.0853 586.383 19.632 586.02 19.344C585.658 19.056 585.14 18.912 584.468 18.912C584.042 18.912 583.588 18.976 583.108 19.104C582.639 19.2213 582.234 19.4133 581.892 19.68V18.528C582.223 18.3147 582.666 18.1547 583.22 18.048C583.775 17.9307 584.314 17.872 584.836 17.872C585.188 17.872 585.514 17.9093 585.812 17.984C586.111 18.048 586.378 18.1493 586.612 18.288C586.847 18.416 587.044 18.5867 587.204 18.8C587.375 19.0027 587.503 19.2427 587.588 19.52C587.684 19.7867 587.732 20.0907 587.732 20.432V24.304C587.732 24.8693 587.562 25.2907 587.22 25.568C586.89 25.8453 586.452 26.0267 585.908 26.112C585.375 26.1973 584.799 26.24 584.18 26.24ZM593.632 26.128C593.205 26.128 592.768 26.0747 592.32 25.968C591.882 25.8507 591.477 25.648 591.104 25.36C590.741 25.0613 590.448 24.64 590.224 24.096C590 23.552 589.888 22.8533 589.888 22C589.888 21.1467 590 20.4533 590.224 19.92C590.448 19.376 590.741 18.9547 591.104 18.656C591.477 18.3573 591.882 18.1547 592.32 18.048C592.768 17.9307 593.205 17.872 593.632 17.872C594.037 17.872 594.437 17.9093 594.832 17.984C595.237 18.0587 595.626 18.1707 596 18.32V19.424C595.648 19.2747 595.285 19.1627 594.912 19.088C594.538 19.0133 594.154 18.976 593.76 18.976C592.81 18.976 592.117 19.216 591.68 19.696C591.253 20.176 591.04 20.944 591.04 22C591.04 23.0667 591.253 23.84 591.68 24.32C592.117 24.7893 592.81 25.024 593.76 25.024C594.154 25.024 594.538 24.9867 594.912 24.912C595.285 24.8373 595.648 24.7253 596 24.576V25.696C595.626 25.8347 595.237 25.9413 594.832 26.016C594.437 26.0907 594.037 26.128 593.632 26.128ZM600.675 26.128C600.109 26.128 599.635 25.9573 599.251 25.616C598.867 25.264 598.675 24.7467 598.675 24.064V19.072H597.283V18.016H598.675V15.76H599.827V18.016H601.891V19.072H599.827V23.696C599.827 24.144 599.896 24.48 600.035 24.704C600.173 24.928 600.456 25.04 600.883 25.04C601.075 25.04 601.261 25.024 601.443 24.992C601.624 24.9493 601.773 24.9013 601.891 24.848V25.936C601.741 25.9893 601.549 26.032 601.315 26.064C601.091 26.1067 600.877 26.128 600.675 26.128Z" fill="#C0C4CE"/>
<rect x="635" width="119" height="40" rx="20" fill="#292C34"/>
<path d="M670.946 14.5708L663.834 10.4416C663.386 10.1861 662.802 10.1861 662.35 10.4416L655.163 14.5708C654.7 14.837 654.372 15.3374 654.372 15.8727V24.1201C654.372 24.6553 654.708 25.1559 655.171 25.4236L657.07 26.5021C657.978 26.9492 658.298 26.9492 658.711 26.9492C660.055 26.9492 660.823 26.1365 660.823 24.7192V16.5769C660.823 16.4619 660.763 16.2908 660.65 16.2908H659.743C659.629 16.2908 659.372 16.4619 659.372 16.5767V24.719C659.372 25.3473 658.803 25.9725 657.741 25.4415L655.779 24.3105C655.711 24.2734 655.662 24.1988 655.662 24.1201V15.8727C655.662 15.7949 655.752 15.7169 655.821 15.6771L662.985 11.555C663.052 11.5171 663.15 11.5171 663.217 11.555L670.294 15.6761C670.361 15.7169 670.337 15.7925 670.337 15.8727V24.1201C670.337 24.1988 670.367 24.2754 670.3 24.3133L663.19 28.4378C663.129 28.4744 663.054 28.4744 662.987 28.4378L661.164 27.3494C661.109 27.3175 661.043 27.306 660.991 27.3355C660.483 27.6231 660.39 27.6613 659.914 27.8263C659.797 27.8671 659.624 27.9379 659.98 28.1374L662.366 29.5491C662.594 29.6807 662.853 29.75 663.116 29.75C663.381 29.75 663.64 29.6813 663.868 29.5491L670.946 25.4236C671.408 25.1539 671.628 24.6553 671.628 24.1201V15.8727C671.628 15.3374 671.408 14.8383 670.946 14.5708ZM665.324 22.8132C663.433 22.8132 663.016 22.2915 662.877 21.3512C662.861 21.2499 662.775 21.1288 662.672 21.1288H661.748C661.634 21.1288 661.542 21.2675 661.542 21.3813C661.542 22.5853 662.196 24.0441 665.324 24.0441C667.588 24.0441 668.886 23.1644 668.886 21.6076C668.886 20.0639 667.843 19.6588 665.647 19.3682C663.428 19.0749 663.203 18.9267 663.203 18.4068C663.203 17.9781 663.394 17.4065 665.037 17.4065C666.505 17.4065 667.046 17.7216 667.269 18.7113C667.288 18.8043 667.373 18.8711 667.469 18.8711H668.397C668.454 18.8711 668.509 18.848 668.549 18.8072C668.587 18.7633 668.608 18.7083 668.603 18.6493C668.459 16.9451 667.327 16.1508 665.037 16.1508C663 16.1508 661.785 17.011 661.785 18.4529C661.785 20.0169 662.994 20.449 664.949 20.6424C667.288 20.8717 667.47 21.2136 667.47 21.6737C667.47 22.4728 666.829 22.8132 665.324 22.8132Z" fill="#82BC4F"/>
<path d="M684.735 26V15.328H686.047L692.703 24.72L692.415 25.168V15.328H693.567V26H692.271L685.359 16.256L685.887 15.76V26H684.735ZM699.482 26.24C698.234 26.24 697.306 25.872 696.698 25.136C696.101 24.3893 695.802 23.3547 695.802 22.032C695.802 20.6453 696.117 19.6053 696.746 18.912C697.386 18.2187 698.287 17.872 699.45 17.872C700.314 17.872 701.018 18.048 701.562 18.4C702.106 18.7413 702.506 19.2267 702.762 19.856C703.018 20.4747 703.146 21.2 703.146 22.032C703.146 23.344 702.826 24.3733 702.186 25.12C701.557 25.8667 700.655 26.24 699.482 26.24ZM699.466 25.184C700.117 25.184 700.623 25.0453 700.986 24.768C701.349 24.48 701.605 24.1013 701.754 23.632C701.914 23.152 701.994 22.6187 701.994 22.032C701.994 21.4027 701.914 20.8587 701.754 20.4C701.594 19.9307 701.327 19.568 700.954 19.312C700.591 19.056 700.095 18.928 699.466 18.928C698.826 18.928 698.325 19.0667 697.962 19.344C697.599 19.6213 697.338 19.9947 697.178 20.464C697.029 20.9227 696.954 21.4453 696.954 22.032C696.954 22.9707 697.141 23.7333 697.514 24.32C697.887 24.896 698.538 25.184 699.466 25.184ZM708.623 26.24C708.239 26.24 707.834 26.1813 707.407 26.064C706.981 25.9573 706.575 25.7547 706.191 25.456C705.818 25.1467 705.509 24.7093 705.263 24.144C705.029 23.568 704.911 22.8213 704.911 21.904C704.911 20.6667 705.21 19.6907 705.807 18.976C706.415 18.2507 707.333 17.888 708.559 17.888C708.794 17.888 709.071 17.92 709.391 17.984C709.711 18.048 710.026 18.128 710.335 18.224C710.645 18.32 710.901 18.4213 711.103 18.528L710.703 18.928V14.64H711.855V24.624C711.855 24.9227 711.749 25.1787 711.535 25.392C711.333 25.5947 711.066 25.76 710.735 25.888C710.405 26.0053 710.053 26.0907 709.679 26.144C709.306 26.208 708.954 26.24 708.623 26.24ZM708.639 25.184C709.194 25.184 709.674 25.12 710.079 24.992C710.495 24.864 710.703 24.704 710.703 24.512V19.504C710.373 19.312 710.015 19.1733 709.631 19.088C709.258 18.992 708.901 18.944 708.559 18.944C707.983 18.944 707.514 19.072 707.151 19.328C706.799 19.5733 706.538 19.92 706.367 20.368C706.207 20.8053 706.127 21.3173 706.127 21.904C706.127 22.48 706.191 23.0187 706.319 23.52C706.447 24.0107 706.693 24.4107 707.055 24.72C707.418 25.0293 707.946 25.184 708.639 25.184ZM717.717 26.24C716.959 26.24 716.303 26.0853 715.749 25.776C715.194 25.456 714.767 24.9813 714.469 24.352C714.17 23.7227 714.021 22.9387 714.021 22C714.021 20.624 714.33 19.5947 714.949 18.912C715.578 18.2187 716.437 17.872 717.525 17.872C718.378 17.872 719.061 18.064 719.573 18.448C720.095 18.832 720.469 19.3493 720.693 20C720.917 20.6507 721.023 21.3867 721.013 22.208H714.597L714.677 21.152H720.261L719.813 21.312C719.781 20.512 719.578 19.9147 719.205 19.52C718.842 19.1253 718.282 18.928 717.525 18.928C717.002 18.928 716.565 19.024 716.213 19.216C715.871 19.408 715.615 19.744 715.445 20.224C715.274 20.6933 715.189 21.3547 715.189 22.208C715.189 23.1787 715.413 23.92 715.861 24.432C716.319 24.9333 716.959 25.184 717.781 25.184C718.175 25.184 718.538 25.1573 718.869 25.104C719.199 25.04 719.503 24.9547 719.781 24.848C720.058 24.7413 720.303 24.624 720.517 24.496V25.68C720.133 25.8613 719.706 26 719.237 26.096C718.778 26.192 718.271 26.24 717.717 26.24ZM723.171 26V24.4H724.771V26H723.171ZM726.207 29.088V28.016C726.676 28.0053 727.023 27.936 727.247 27.808C727.482 27.6907 727.636 27.5093 727.711 27.264C727.796 27.0293 727.839 26.7413 727.839 26.4V18.016H728.991V26.464C728.991 27.0507 728.89 27.536 728.687 27.92C728.484 28.3147 728.175 28.608 727.759 28.8C727.354 28.992 726.836 29.088 726.207 29.088ZM727.775 16.592V15.328H729.055V16.592H727.775ZM733.864 26.24C733.288 26.24 732.803 26.1813 732.408 26.064C732.024 25.9467 731.624 25.7813 731.208 25.568V24.352C731.539 24.5333 731.832 24.688 732.088 24.816C732.344 24.944 732.605 25.04 732.872 25.104C733.139 25.1573 733.443 25.184 733.784 25.184C734.317 25.184 734.749 25.0667 735.08 24.832C735.421 24.5973 735.592 24.2933 735.592 23.92C735.592 23.6213 735.507 23.392 735.336 23.232C735.176 23.072 734.968 22.9387 734.712 22.832C734.456 22.7253 734.189 22.6133 733.912 22.496C733.603 22.4107 733.288 22.32 732.968 22.224C732.659 22.1173 732.371 21.984 732.104 21.824C731.848 21.6533 731.64 21.44 731.48 21.184C731.32 20.9173 731.24 20.576 731.24 20.16C731.24 19.7547 731.32 19.408 731.48 19.12C731.651 18.832 731.869 18.5973 732.136 18.416C732.403 18.224 732.701 18.0853 733.032 18C733.363 17.9147 733.693 17.872 734.024 17.872C734.504 17.872 734.915 17.936 735.256 18.064C735.597 18.192 735.949 18.336 736.312 18.496V19.648C735.907 19.4347 735.544 19.264 735.224 19.136C734.904 18.9973 734.525 18.928 734.088 18.928C733.651 18.928 733.256 19.0187 732.904 19.2C732.563 19.3707 732.392 19.6373 732.392 20C732.392 20.2987 732.477 20.5387 732.648 20.72C732.829 20.8907 733.064 21.0293 733.352 21.136C733.64 21.232 733.949 21.328 734.28 21.424C734.547 21.5093 734.824 21.6053 735.112 21.712C735.4 21.808 735.667 21.9413 735.912 22.112C736.157 22.272 736.355 22.4853 736.504 22.752C736.664 23.0187 736.744 23.36 736.744 23.776C736.744 24.3413 736.6 24.8107 736.312 25.184C736.024 25.5467 735.656 25.8133 735.208 25.984C734.771 26.1547 734.323 26.24 733.864 26.24Z" fill="#C0C4CE"/>
</svg>
